<svg width="15" height="20" viewBox="0 0 15 20" fill="none" xmlns="http://www.w3.org/2000/svg">
<path fill-rule="evenodd" clip-rule="evenodd" d="M7.3335 0C3.4635 0 0.333496 3.13 0.333496 7C0.333496 12.25 7.3335 20 7.3335 20C7.3335 20 14.3335 12.25 14.3335 7C14.3335 3.13 11.2035 0 7.3335 0ZM2.3335 7C2.3335 4.24 4.5735 2 7.3335 2C10.0935 2 12.3335 4.24 12.3335 7C12.3335 9.88 9.4535 14.19 7.3335 16.88C5.2535 14.21 2.3335 9.85 2.3335 7ZM4.8335 7C4.8335 5.61929 5.95279 4.5 7.3335 4.5C8.22666 4.5 9.05198 4.9765 9.49856 5.75C9.94514 6.5235 9.94514 7.4765 9.49856 8.25C9.05198 9.0235 8.22666 9.5 7.3335 9.5C5.95279 9.5 4.8335 8.38071 4.8335 7Z" fill="#558B2F"/>
</svg>
