<svg width="17" height="20" viewBox="0 0 17 20" fill="none" xmlns="http://www.w3.org/2000/svg">
<path fill-rule="evenodd" clip-rule="evenodd" d="M14.609 13.8462V8.71795C14.609 5.56923 12.9372 2.93333 9.99359 2.2359V1.53846C9.99359 0.687179 9.30641 0 8.45513 0C7.60385 0 6.91667 0.687179 6.91667 1.53846V2.2359C3.98333 2.93333 2.30128 5.55897 2.30128 8.71795V13.8462L0.25 15.8974V16.9231H16.6603V15.8974L14.609 13.8462ZM8.45513 20C9.58334 20 10.5064 19.0769 10.5064 17.9487H6.40385C6.40385 19.0769 7.32693 20 8.45513 20ZM4.35256 14.8718H12.5577V8.71795C12.5577 6.17436 11.009 4.10256 8.45513 4.10256C5.90128 4.10256 4.35256 6.17436 4.35256 8.71795V14.8718Z" fill="#558B2F"/>
</svg>
